#tb 0: 1001/30000
0,          0,          0,        1,      768, d801797c94039b0a166d46e151ec912c
0,          1,          1,        1,      768, 161ec22caa3689b214d9ab993424584b
0,          2,          2,        1,      768, 499b589ecf1873e388c256ce948eabb9
0,          3,          3,        1,      768, 22bc77650e3df70e3e36f2a1b8d8aa71
0,          4,          4,        1,      768, 750e40530257a68211596a60de18bffa
0,          5,          5,        1,      768, 4f812a92157e7186642656b59bc28a3d
0,          6,          6,        1,      768, a3f141cec127a2c2e16740b8dd4ce56a
0,          7,          7,        1,      768, a5ba9959bf65ab6e254e5b359a3d59b5
0,          8,          8,        1,      768, baa72b8a57277d9e9ad4b92aab04f5d1
0,          9,          9,        1,      768, 4cb9aebb6c9d5bd164461726de201549
